<mxfile host="Electron" agent="Mozilla/5.0 (Macintosh; Intel Mac OS X 10_15_7) AppleWebKit/537.36 (KHTML, like Gecko) draw.io/26.2.2 Chrome/134.0.6998.178 Electron/35.1.2 Safari/537.36" version="26.2.2">
  <diagram name="Page-1" id="NafeUCt79h5gkK6PvNNR">
    <mxGraphModel dx="2311" dy="2084" grid="1" gridSize="10" guides="1" tooltips="1" connect="1" arrows="1" fold="1" page="1" pageScale="1" pageWidth="827" pageHeight="1169" math="0" shadow="0">
      <root>
        <mxCell id="0" />
        <mxCell id="1" parent="0" />
        <mxCell id="CmJYbGALnQcRHBiEloU5-1" value="&lt;font style=&quot;font-size: 23px;&quot;&gt;crm_cust_info&lt;/font&gt;" style="swimlane;fontStyle=0;childLayout=stackLayout;horizontal=1;startSize=30;horizontalStack=0;resizeParent=1;resizeParentMax=0;resizeLast=0;collapsible=1;marginBottom=0;whiteSpace=wrap;html=1;rounded=1;shadow=0;swimlaneLine=1;strokeColor=#6c8ebf;fillColor=#dae8fc;fontSize=26;" parent="1" vertex="1">
          <mxGeometry x="60" y="340" width="260" height="110" as="geometry">
            <mxRectangle x="90" y="220" width="60" height="30" as="alternateBounds" />
          </mxGeometry>
        </mxCell>
        <mxCell id="CmJYbGALnQcRHBiEloU5-2" value="&lt;font style=&quot;font-size: 22px;&quot;&gt;cst_id&lt;/font&gt;" style="text;strokeColor=none;fillColor=none;align=left;verticalAlign=middle;spacingLeft=4;spacingRight=4;overflow=hidden;points=[[0,0.5],[1,0.5]];portConstraint=eastwest;rotatable=0;whiteSpace=wrap;html=1;fontSize=26;" parent="CmJYbGALnQcRHBiEloU5-1" vertex="1">
          <mxGeometry y="30" width="260" height="40" as="geometry" />
        </mxCell>
        <mxCell id="CmJYbGALnQcRHBiEloU5-21" value="&lt;font style=&quot;font-size: 22px;&quot;&gt;cst_key&lt;/font&gt;" style="text;strokeColor=none;fillColor=none;align=left;verticalAlign=middle;spacingLeft=4;spacingRight=4;overflow=hidden;points=[[0,0.5],[1,0.5]];portConstraint=eastwest;rotatable=0;whiteSpace=wrap;html=1;fontSize=26;" parent="CmJYbGALnQcRHBiEloU5-1" vertex="1">
          <mxGeometry y="70" width="260" height="40" as="geometry" />
        </mxCell>
        <mxCell id="CmJYbGALnQcRHBiEloU5-23" style="edgeStyle=orthogonalEdgeStyle;rounded=0;orthogonalLoop=1;jettySize=auto;html=1;exitX=1;exitY=0.5;exitDx=0;exitDy=0;" parent="CmJYbGALnQcRHBiEloU5-1" source="CmJYbGALnQcRHBiEloU5-2" target="CmJYbGALnQcRHBiEloU5-2" edge="1">
          <mxGeometry relative="1" as="geometry" />
        </mxCell>
        <mxCell id="CmJYbGALnQcRHBiEloU5-5" value="&lt;font style=&quot;font-size: 19px;&quot;&gt;Customer Information&lt;/font&gt;" style="text;html=1;align=center;verticalAlign=middle;whiteSpace=wrap;rounded=0;" parent="1" vertex="1">
          <mxGeometry x="78.75" y="300" width="200" height="30" as="geometry" />
        </mxCell>
        <mxCell id="CmJYbGALnQcRHBiEloU5-6" value="&lt;font style=&quot;font-size: 23px;&quot;&gt;crm_prd_info&lt;/font&gt;" style="swimlane;fontStyle=0;childLayout=stackLayout;horizontal=1;startSize=30;horizontalStack=0;resizeParent=1;resizeParentMax=0;resizeLast=0;collapsible=1;marginBottom=0;whiteSpace=wrap;html=1;rounded=1;shadow=0;swimlaneLine=1;strokeColor=#6c8ebf;fillColor=#dae8fc;fontSize=26;" parent="1" vertex="1">
          <mxGeometry x="60" y="160" width="270" height="70" as="geometry">
            <mxRectangle x="90" y="220" width="60" height="30" as="alternateBounds" />
          </mxGeometry>
        </mxCell>
        <mxCell id="CmJYbGALnQcRHBiEloU5-7" value="&lt;font style=&quot;font-size: 22px;&quot;&gt;prd_key&lt;/font&gt;" style="text;strokeColor=none;fillColor=none;align=left;verticalAlign=middle;spacingLeft=4;spacingRight=4;overflow=hidden;points=[[0,0.5],[1,0.5]];portConstraint=eastwest;rotatable=0;whiteSpace=wrap;html=1;fontSize=26;" parent="CmJYbGALnQcRHBiEloU5-6" vertex="1">
          <mxGeometry y="30" width="270" height="40" as="geometry" />
        </mxCell>
        <mxCell id="CmJYbGALnQcRHBiEloU5-8" value="&lt;font style=&quot;font-size: 19px;&quot;&gt;Current History Product Information&lt;/font&gt;" style="text;html=1;align=center;verticalAlign=middle;whiteSpace=wrap;rounded=0;" parent="1" vertex="1">
          <mxGeometry x="39.370000000000005" y="120" width="311.25" height="30" as="geometry" />
        </mxCell>
        <mxCell id="CmJYbGALnQcRHBiEloU5-9" value="&lt;font style=&quot;font-size: 22px;&quot;&gt;crm_sales_details&lt;/font&gt;" style="swimlane;fontStyle=0;childLayout=stackLayout;horizontal=1;startSize=30;horizontalStack=0;resizeParent=1;resizeParentMax=0;resizeLast=0;collapsible=1;marginBottom=0;whiteSpace=wrap;html=1;rounded=1;shadow=0;swimlaneLine=1;strokeColor=#6c8ebf;fillColor=#dae8fc;fontSize=26;" parent="1" vertex="1">
          <mxGeometry x="-340" y="230" width="300" height="110" as="geometry">
            <mxRectangle x="90" y="220" width="60" height="30" as="alternateBounds" />
          </mxGeometry>
        </mxCell>
        <mxCell id="CmJYbGALnQcRHBiEloU5-10" value="&lt;span style=&quot;font-size: 22px;&quot;&gt;prd_key&lt;/span&gt;" style="text;strokeColor=none;fillColor=none;align=left;verticalAlign=middle;spacingLeft=4;spacingRight=4;overflow=hidden;points=[[0,0.5],[1,0.5]];portConstraint=eastwest;rotatable=0;whiteSpace=wrap;html=1;fontSize=26;" parent="CmJYbGALnQcRHBiEloU5-9" vertex="1">
          <mxGeometry y="30" width="300" height="40" as="geometry" />
        </mxCell>
        <mxCell id="CmJYbGALnQcRHBiEloU5-13" value="&lt;span style=&quot;font-size: 22px;&quot;&gt;cst_key&lt;/span&gt;" style="text;strokeColor=none;fillColor=none;align=left;verticalAlign=middle;spacingLeft=4;spacingRight=4;overflow=hidden;points=[[0,0.5],[1,0.5]];portConstraint=eastwest;rotatable=0;whiteSpace=wrap;html=1;fontSize=26;" parent="CmJYbGALnQcRHBiEloU5-9" vertex="1">
          <mxGeometry y="70" width="300" height="40" as="geometry" />
        </mxCell>
        <mxCell id="CmJYbGALnQcRHBiEloU5-11" value="&lt;font style=&quot;font-size: 19px;&quot;&gt;Tranactional Records about Sales and Orders&lt;/font&gt;" style="text;html=1;align=center;verticalAlign=middle;whiteSpace=wrap;rounded=0;" parent="1" vertex="1">
          <mxGeometry x="-390" y="190" width="390" height="30" as="geometry" />
        </mxCell>
        <mxCell id="CmJYbGALnQcRHBiEloU5-14" style="edgeStyle=orthogonalEdgeStyle;rounded=0;orthogonalLoop=1;jettySize=auto;html=1;entryX=0;entryY=0.5;entryDx=0;entryDy=0;" parent="1" source="CmJYbGALnQcRHBiEloU5-13" target="CmJYbGALnQcRHBiEloU5-2" edge="1">
          <mxGeometry relative="1" as="geometry" />
        </mxCell>
        <mxCell id="CmJYbGALnQcRHBiEloU5-15" style="edgeStyle=orthogonalEdgeStyle;rounded=0;orthogonalLoop=1;jettySize=auto;html=1;entryX=0;entryY=0.5;entryDx=0;entryDy=0;" parent="1" source="CmJYbGALnQcRHBiEloU5-10" target="CmJYbGALnQcRHBiEloU5-7" edge="1">
          <mxGeometry relative="1" as="geometry" />
        </mxCell>
        <mxCell id="CmJYbGALnQcRHBiEloU5-18" value="&lt;font style=&quot;font-size: 23px;&quot;&gt;erp_cust_az12&lt;/font&gt;" style="swimlane;fontStyle=0;childLayout=stackLayout;horizontal=1;startSize=30;horizontalStack=0;resizeParent=1;resizeParentMax=0;resizeLast=0;collapsible=1;marginBottom=0;whiteSpace=wrap;html=1;rounded=1;shadow=0;swimlaneLine=1;strokeColor=#d6b656;fillColor=#fff2cc;fontSize=26;" parent="1" vertex="1">
          <mxGeometry x="745" y="300" width="295" height="70" as="geometry">
            <mxRectangle x="90" y="220" width="60" height="30" as="alternateBounds" />
          </mxGeometry>
        </mxCell>
        <mxCell id="CmJYbGALnQcRHBiEloU5-19" value="&lt;span style=&quot;font-size: 22px;&quot;&gt;cid&lt;/span&gt;" style="text;strokeColor=none;fillColor=none;align=left;verticalAlign=middle;spacingLeft=4;spacingRight=4;overflow=hidden;points=[[0,0.5],[1,0.5]];portConstraint=eastwest;rotatable=0;whiteSpace=wrap;html=1;fontSize=26;" parent="CmJYbGALnQcRHBiEloU5-18" vertex="1">
          <mxGeometry y="30" width="295" height="40" as="geometry" />
        </mxCell>
        <mxCell id="CmJYbGALnQcRHBiEloU5-20" value="&lt;font style=&quot;font-size: 19px;&quot;&gt;Extra Customer Information (Birthdate)&amp;nbsp;&lt;/font&gt;" style="text;html=1;align=center;verticalAlign=middle;whiteSpace=wrap;rounded=0;" parent="1" vertex="1">
          <mxGeometry x="720" y="260" width="350" height="30" as="geometry" />
        </mxCell>
        <mxCell id="CmJYbGALnQcRHBiEloU5-22" style="edgeStyle=orthogonalEdgeStyle;rounded=0;orthogonalLoop=1;jettySize=auto;html=1;exitX=0;exitY=0.5;exitDx=0;exitDy=0;entryX=1;entryY=0.5;entryDx=0;entryDy=0;" parent="1" source="CmJYbGALnQcRHBiEloU5-19" target="CmJYbGALnQcRHBiEloU5-21" edge="1">
          <mxGeometry relative="1" as="geometry" />
        </mxCell>
        <mxCell id="CmJYbGALnQcRHBiEloU5-24" value="&lt;font style=&quot;font-size: 23px;&quot;&gt;erp_loc&lt;/font&gt;&lt;span style=&quot;font-size: 23px; background-color: transparent; color: light-dark(rgb(0, 0, 0), rgb(255, 255, 255));&quot;&gt;_a101&lt;/span&gt;" style="swimlane;fontStyle=0;childLayout=stackLayout;horizontal=1;startSize=30;horizontalStack=0;resizeParent=1;resizeParentMax=0;resizeLast=0;collapsible=1;marginBottom=0;whiteSpace=wrap;html=1;rounded=1;shadow=0;swimlaneLine=1;strokeColor=#d6b656;fillColor=#fff2cc;fontSize=26;" parent="1" vertex="1">
          <mxGeometry x="745" y="470" width="295" height="70" as="geometry">
            <mxRectangle x="90" y="220" width="60" height="30" as="alternateBounds" />
          </mxGeometry>
        </mxCell>
        <mxCell id="CmJYbGALnQcRHBiEloU5-25" value="&lt;span style=&quot;font-size: 22px;&quot;&gt;cid&lt;/span&gt;" style="text;strokeColor=none;fillColor=none;align=left;verticalAlign=middle;spacingLeft=4;spacingRight=4;overflow=hidden;points=[[0,0.5],[1,0.5]];portConstraint=eastwest;rotatable=0;whiteSpace=wrap;html=1;fontSize=26;" parent="CmJYbGALnQcRHBiEloU5-24" vertex="1">
          <mxGeometry y="30" width="295" height="40" as="geometry" />
        </mxCell>
        <mxCell id="CmJYbGALnQcRHBiEloU5-26" value="&lt;font style=&quot;font-size: 19px;&quot;&gt;Location of Customer(Country)&lt;/font&gt;" style="text;html=1;align=center;verticalAlign=middle;whiteSpace=wrap;rounded=0;" parent="1" vertex="1">
          <mxGeometry x="740" y="430" width="310" height="30" as="geometry" />
        </mxCell>
        <mxCell id="CmJYbGALnQcRHBiEloU5-28" style="edgeStyle=orthogonalEdgeStyle;rounded=0;orthogonalLoop=1;jettySize=auto;html=1;entryX=1;entryY=0.5;entryDx=0;entryDy=0;" parent="1" source="CmJYbGALnQcRHBiEloU5-25" target="CmJYbGALnQcRHBiEloU5-21" edge="1">
          <mxGeometry relative="1" as="geometry">
            <mxPoint x="430" y="499.9999999999998" as="targetPoint" />
          </mxGeometry>
        </mxCell>
        <mxCell id="CmJYbGALnQcRHBiEloU5-29" value="&lt;font style=&quot;font-size: 23px;&quot;&gt;erp_px_cat_g1v2&lt;/font&gt;" style="swimlane;fontStyle=0;childLayout=stackLayout;horizontal=1;startSize=30;horizontalStack=0;resizeParent=1;resizeParentMax=0;resizeLast=0;collapsible=1;marginBottom=0;whiteSpace=wrap;html=1;rounded=1;shadow=0;swimlaneLine=1;strokeColor=#d6b656;fillColor=#fff2cc;fontSize=26;" parent="1" vertex="1">
          <mxGeometry x="745" y="110" width="295" height="70" as="geometry">
            <mxRectangle x="90" y="220" width="60" height="30" as="alternateBounds" />
          </mxGeometry>
        </mxCell>
        <mxCell id="CmJYbGALnQcRHBiEloU5-32" value="&lt;span style=&quot;font-size: 22px;&quot;&gt;id&lt;/span&gt;" style="text;strokeColor=none;fillColor=none;align=left;verticalAlign=middle;spacingLeft=4;spacingRight=4;overflow=hidden;points=[[0,0.5],[1,0.5]];portConstraint=eastwest;rotatable=0;whiteSpace=wrap;html=1;fontSize=26;" parent="CmJYbGALnQcRHBiEloU5-29" vertex="1">
          <mxGeometry y="30" width="295" height="40" as="geometry" />
        </mxCell>
        <mxCell id="CmJYbGALnQcRHBiEloU5-31" value="&lt;span style=&quot;font-size: 19px;&quot;&gt;Product Categories&lt;/span&gt;" style="text;html=1;align=center;verticalAlign=middle;whiteSpace=wrap;rounded=0;" parent="1" vertex="1">
          <mxGeometry x="705" y="70" width="380" height="30" as="geometry" />
        </mxCell>
        <mxCell id="CmJYbGALnQcRHBiEloU5-33" style="edgeStyle=orthogonalEdgeStyle;rounded=0;orthogonalLoop=1;jettySize=auto;html=1;entryX=1;entryY=0.5;entryDx=0;entryDy=0;" parent="1" source="CmJYbGALnQcRHBiEloU5-32" target="CmJYbGALnQcRHBiEloU5-7" edge="1">
          <mxGeometry relative="1" as="geometry" />
        </mxCell>
        <mxCell id="CmJYbGALnQcRHBiEloU5-36" value="" style="rounded=1;whiteSpace=wrap;html=1;fillColor=none;dashed=1;dashPattern=8 8;fontStyle=1" parent="1" vertex="1">
          <mxGeometry x="-413" y="10" width="780" height="600" as="geometry" />
        </mxCell>
        <mxCell id="CmJYbGALnQcRHBiEloU5-37" value="&lt;font style=&quot;font-size: 26px;&quot;&gt;CRM&lt;/font&gt;" style="rounded=1;whiteSpace=wrap;html=1;fillColor=#dae8fc;strokeColor=#6c8ebf;fontStyle=1" parent="1" vertex="1">
          <mxGeometry x="-100" y="-30" width="210" height="60" as="geometry" />
        </mxCell>
        <mxCell id="CmJYbGALnQcRHBiEloU5-38" value="" style="rounded=1;whiteSpace=wrap;html=1;fillColor=none;dashed=1;dashPattern=8 8;" parent="1" vertex="1">
          <mxGeometry x="460" width="707.5" height="600" as="geometry" />
        </mxCell>
        <mxCell id="CmJYbGALnQcRHBiEloU5-39" value="&lt;font style=&quot;font-size: 26px;&quot;&gt;ERP&lt;/font&gt;" style="rounded=1;whiteSpace=wrap;html=1;fillColor=#dae8fc;strokeColor=#6c8ebf;fontStyle=1" parent="1" vertex="1">
          <mxGeometry x="710" y="-30" width="210" height="60" as="geometry" />
        </mxCell>
        <mxCell id="-mo0iBlShTDaHpMDwijh-1" value="&lt;font style=&quot;font-size: 20px;&quot;&gt;PRODUCT&lt;/font&gt;" style="text;html=1;strokeColor=#36393d;fillColor=#ffcccc;align=center;verticalAlign=middle;whiteSpace=wrap;overflow=hidden;fontStyle=1" vertex="1" parent="1">
          <mxGeometry x="745" y="180" width="295" height="30" as="geometry" />
        </mxCell>
        <mxCell id="-mo0iBlShTDaHpMDwijh-2" value="&lt;font style=&quot;font-size: 20px;&quot;&gt;PRODUCT&lt;/font&gt;" style="text;html=1;strokeColor=#36393d;fillColor=#ffcccc;align=center;verticalAlign=middle;whiteSpace=wrap;overflow=hidden;fontStyle=1" vertex="1" parent="1">
          <mxGeometry x="60" y="230" width="270" height="30" as="geometry" />
        </mxCell>
        <mxCell id="-mo0iBlShTDaHpMDwijh-3" value="&lt;font style=&quot;font-size: 20px;&quot;&gt;CUSTOMER&lt;/font&gt;" style="text;html=1;strokeColor=#36393d;fillColor=#cdeb8b;align=center;verticalAlign=middle;whiteSpace=wrap;overflow=hidden;fontStyle=1" vertex="1" parent="1">
          <mxGeometry x="745" y="370" width="295" height="30" as="geometry" />
        </mxCell>
        <mxCell id="-mo0iBlShTDaHpMDwijh-5" value="&lt;font style=&quot;font-size: 20px;&quot;&gt;CUSTOMER&lt;/font&gt;" style="text;html=1;strokeColor=#36393d;fillColor=#cdeb8b;align=center;verticalAlign=middle;whiteSpace=wrap;overflow=hidden;fontStyle=1" vertex="1" parent="1">
          <mxGeometry x="747.5" y="540" width="295" height="30" as="geometry" />
        </mxCell>
        <mxCell id="-mo0iBlShTDaHpMDwijh-6" value="&lt;font style=&quot;font-size: 20px;&quot;&gt;CUSTOMER&lt;/font&gt;" style="text;html=1;strokeColor=#36393d;fillColor=#cdeb8b;align=center;verticalAlign=middle;whiteSpace=wrap;overflow=hidden;fontStyle=1" vertex="1" parent="1">
          <mxGeometry x="60" y="450" width="260" height="30" as="geometry" />
        </mxCell>
        <mxCell id="-mo0iBlShTDaHpMDwijh-8" value="&lt;span style=&quot;font-size: 20px;&quot;&gt;SALES&lt;/span&gt;" style="text;html=1;strokeColor=#9673a6;fillColor=#e1d5e7;align=center;verticalAlign=middle;whiteSpace=wrap;overflow=hidden;fontStyle=1;" vertex="1" parent="1">
          <mxGeometry x="-340" y="340" width="300" height="40" as="geometry" />
        </mxCell>
      </root>
    </mxGraphModel>
  </diagram>
</mxfile>
